<svg id="Layer_2" data-name="Layer 2" xmlns="http://www.w3.org/2000/svg" viewBox="0 0 2858.05 1259.79"><defs><style>.cls-1{fill:#171714;}</style></defs><title>mp-logo</title><g id="_Group_" data-name="&lt;Group&gt;"><g id="_Group_2" data-name="&lt;Group&gt;"><path d="M2167.37,772.68c2.92,3.82,5.23,8.45,4.73,13.38-2,19.91-3.42,40-14.48,57.83-4,6.54-9.25,10.26-16.8,12.37-31.28,8.45-63.16,11.26-95.44,12-5.53.2-11.36-.91-16.8.1-49.08,9.65-95.54-5-142.51-14.88-15.89-3.32-27.46-13.68-35.9-26.75-13.07-20.22-24-41.64-28.46-65.88-3-16.59-7.54-32.59-8.85-49.68-3.12-38.32-9.05-76.54-12.37-114.85-2.51-28.76-8.35-57.33-5.13-86.49a29.09,29.09,0,0,0-.1-7.24c-5.73-31.18-.5-62.46-.5-93.73-.1-34.19,10.56-65.07,32.38-91.32,10.86-13.28,26.85-19.61,42.64-25.65,32.89-12.57,67.18-15.79,101.88-14.18,33,1.51,65.88,2.11,98.66-2.72,18.51-2.72,36.81,2.11,55.11,4.12,5.73.7,10.46,3.92,14.68,7.84,18.2,16.59,27.05,37.61,28.26,61.85.8,17.1-5.33,24.44-22.93,28.26-21.32,4.53-42.94,6.34-64.67,7-37.71,1.31-75.43,4.22-112.64,10.66-44.65,7.74-54,13.78-60.75,63.56a124.07,124.07,0,0,0,2.21,47.87c1.61,6.34,5.33,9.55,11.87,9.55h58.13c9.35-.5,21.32-1.41,33.39-1.81,6.44-.3,12.87-.2,19.21.1,17.8,1,30.07,8.65,35.4,26.85,3.82,13.18,9.25,25.75,8.65,39.83-.8,15.29-5.63,22.63-20.92,24.74-27,3.82-53.71,9.65-81.16,10.16-16.9.3-33.69,1.61-50.49,3.32-10.86,1.11-12.37,2.82-13.28,13.48a331.41,331.41,0,0,0-1.31,36c.3,11.26,1,22.33-.2,33.69-2.61,24.84,8.75,41.34,32.59,49.48,13.18,4.53,26.65,4.93,40.43,5.13,42.64.6,85.08-3.42,127.63-5,7.14-.3,14.48-.4,21.62-.2C2147,752.06,2158.12,760.81,2167.37,772.68Z" transform="translate(-15 -274.13)"/></g></g><path d="M909.57,836.36c1.8,10.49-1.78,18-10.62,24.76C880.87,875,862,882.88,838.6,879.65c-24.42-3.39-39-18.61-47.65-39.36-5.89-14-10.3-28.72-16.89-42.5-13.28-27.77-22.29-56.85-29.22-86.73-12.77-55.68-31.5-109.68-46.56-164.76a129.54,129.54,0,0,0-6.78-18c-3.72-8.59-7.8-9.7-14.24-3.16-24.48,25.51-48.75,51.21-73.13,76.92a24.35,24.35,0,0,0-4.16,5.83c-17.23,32-46.45,53-71.58,77.65a17.4,17.4,0,0,1-8.14,4.61c-30.65,5.46-59.46,3-82.54-21.21C411.56,641.65,383.79,616.07,363,584c-11.72-18.08-26-34.63-39-52-2.58-3.4-4.9-3.7-7.37-.36-4.26,5.74-8.73,11.48-12.36,17.79-17.76,31.44-35.94,62.59-52.66,94.69-12.93,24.87-24.41,50.68-35.7,76.37-15.19,34.84-35.55,66.7-54.35,99.5-4.28,7.55-10.62,14-15.82,21.18-8.62,11.58-19.8,15.83-33.84,12.76-6.3-1.32-12.68-2-19.07-3-35-5.41-54.1-37.34-42.81-71.5,2.3-6.85,25.41-48.71,31.11-58.14,21-35.21,41.09-70.89,58.58-108.05C156.19,578.27,176,544.93,194,510.86c19.89-37.68,37.3-76.65,59.14-113.31,4.95-8.29,9.17-17,14.85-24.76,12.4-16.79,28.06-28.7,49.63-30.41,13.65-.84,25.1,2.85,35.32,12.55,21.6,20.54,40.49,43.52,58.61,67,11.79,15.26,24.64,29.66,34.19,46.53,2.74,4.81,6.76,8.95,10.68,13,11.55,12.25,24.25,23.43,33.77,37.59,2.17,3.32,5.41,6,8.45,8.57,6.71,5.73,10.54,5.75,16.59-.47,13.35-13.81,26.48-27.92,39.83-41.83q67.54-70.51,135.08-140.92c14.21-14.76,31.44-18.89,50.92-13.45,21.83,6.13,38.82,18.42,48.87,39.6a255.2,255.2,0,0,1,22.48,76.07,481.23,481.23,0,0,0,13.65,65.91c7.84,27.82,12.9,56.38,18.86,84.7,3.25,15.76,5.72,31.85,12.64,46.43C870.86,671.54,877,701.46,884.72,731c3.81,14.72,7.53,29.65,12.43,44C903.82,795,905.89,815.79,909.57,836.36Z" transform="translate(-15 -274.13)"/><path d="M1118.9,737.78c5.93,19.21,3,38.12.4,57.23-1,7.34-5.23,11.06-12.37,12.77-23.33,5.63-46.46,12.17-69.9,17.2-19.71,4.22-30.78-2.72-37.11-21.42a82.64,82.64,0,0,1-3.82-16.39q-5.58-43-10.56-86.09c-.8-7.14-.1-14.48-.1-20.82,2.41-14.48,1-27.86-.4-41.54-1.91-18.3-1-36.91-1.11-55.42-.4-38.52-.4-77.14-.91-115.66-.3-30.47-1.41-60.95-1.51-91.52,0-11.16,1.81-22.33,2.82-33.59,2.41-29.87,20.82-43.75,52.5-44.55,17.6-.4,34.9,4.83,51.59,10.76,9,3.12,14.48,10,17.3,18.81,5,16.19,8.65,32.69,8,49.68-.6,17.7-2.72,35.3-3.22,52.9-.6,28.86-.8,57.83-.6,86.69.2,37.82.1,75.53,1.91,113.24,1.31,26.45-3,53,1.81,79.35C1115.48,718.88,1116.08,728.63,1118.9,737.78Z" transform="translate(-15 -274.13)"/><path d="M1690.45,387.08c.91,9.05-.7,17.3-6.74,24.84-8.45,10.76-16.8,21.32-27.36,30.27-19.11,16-38.72,31.38-60.24,44.15-2.72,1.61-5.73,3-8.15,5.13-37.51,33-80.66,58.13-121.49,86.59-1.31.91-2.61,1.81-3.92,2.82-3.72,2.92-4.83,6.64-1.71,10.36,6.34,7.24,12.47,14.78,19.61,21.22,13.78,12.37,27.86,24.34,42.34,35.7a1206.47,1206.47,0,0,1,99.67,87.1c12.67,12.37,25,25,39.22,35.7,5.73,4.32,10.66,9.86,15.29,15.39,10.56,12.77,11,19.41,1.71,32.28-7.14,9.65-14.68,19.11-22.63,28.06a96.12,96.12,0,0,1-16.49,14.08c-12.27,8.45-25.44,9.55-38.62,2.21a302.07,302.07,0,0,1-26.75-16.39c-32.28-22.63-62-48.48-90.82-75.33Q1433,724.5,1382.5,677.94A61.16,61.16,0,0,0,1375,672c-3.72-2.51-7.95-.2-8.15,4.63-.8,18.4-1.51,36.91-1.91,55.42-.3,12-.1,24-.1,36.11h.4v67.38c0,7.24,0,14.48-.5,21.62-.8,13.28-5.93,18.61-19.51,19.31-12,.7-24,.5-36.11.5-8.85,0-17.7.2-26.55-.4-18-1.11-25.65-8.85-27.56-27a77.52,77.52,0,0,1-.4-9.65c1.81-33.69-1.11-67.38,3.22-101.18,2.82-22.23,3.52-44.65-1.31-67.18-2.11-10,0-20.82-.7-31.18-3.32-53.1-.6-106.1-.91-159.21-.3-40.13-.1-80.36.1-120.49,0-6.44,0-13,1.21-19.21,2.92-14.28,12.07-23.23,26.45-23.74,18.4-.7,36.91.1,55.32.7,4.73.2,9.35,2.31,14.08,3.42,9.76,2.21,15.09,8.65,16.8,18.2,3.92,21.42,8,42.64,7.34,64.57-.8,27.26-3.12,54.61-1,82,.2,3.12-.3,6.44.3,9.55.8,4,3.62,4.83,7,2.82,2.82-1.71,5.53-3.42,8.15-5.23,40.13-26.65,80.56-53,118.07-83.37,5-4,10.06-8.25,15.59-11.36,30.07-17.1,58.63-36.41,87-56.22a61.6,61.6,0,0,1,8.35-4.73c25.24-12.07,45.06-6.44,59.94,17.3A72.65,72.65,0,0,1,1690.45,387.08Z" transform="translate(-15 -274.13)"/><path d="M371.07,1123.21c-.16,17.49,6,34.26,5.24,51.84-.64,14.19-1.21,28.38-4.43,42.24-2.26,9.43-5.08,18.54-11.61,26.2-3.71,4.43-7.42,9.19-9.84,14.35-7.34,15.8-20.11,26.72-33,37.49-8.33,7-19.35,10.64-29.67,13.71-32.81,9.51-65.79,18.22-98.92,26.44-11.21,2.82-23,3.06-34.51,4.76a171.29,171.29,0,0,0-17,3.31c-9.75,2.34-11.37,4.11-11.85,14.59-.73,17.33-.73,34.75-1.69,52.16-.89,16.69-2.74,33.38-4,50.06-.4,5.4-3.31,7.9-8,9.59-20.4,7.26-40.55,5.72-60.38-2-2.82-1.13-5.32-3.63-7.5-5.89a43.24,43.24,0,0,1-12.17-25.72c-1.69-15.4-3.47-30.8-4.68-46.19-1.85-23.14-2.66-46.36-5.08-69.41-4.19-39.75-5.24-79.65-5.24-119.64,0-10.32.89-20.56,1.45-33.3-4-34.18-2.5-71-3.14-107.71-.16-10.32-.08-20.64,2.26-30.8a40,40,0,0,1,7-15.72c4.19-5.48,8.87-9,16-8.95,40.63.16,81-6.21,121.65-4a162.88,162.88,0,0,1,32.49,4.76,458.6,458.6,0,0,1,117.22,49.34c12.09,7.18,23.22,16.12,34.51,24.67,3,2.26,5.24,5.64,7.09,8.95,2.9,5.08,5.4,10.24,9.67,14.35C366.15,1105.79,371.07,1122.4,371.07,1123.21ZM299.8,1187.3c1.13-23-9.92-40.79-23.46-57.64a64.31,64.31,0,0,0-16-13.79c-43.45-27.09-91.66-36.92-142-39.18-7-.32-9.75,2.1-9.84,8.71a117.86,117.86,0,0,0,1.29,19.27c4.6,28.06,7.66,56.19,6.69,84.65,0,14.19.16,28.38-.08,42.57-.24,17.82,5.72,17.66,20.32,17.09a15.53,15.53,0,0,0,1.93-.08c24.83-3.55,49.74-7,74.57-10.72a97.54,97.54,0,0,0,15-3.87c12.17-4,24.35-8.38,36.52-12.58,10-3.31,18.38-9.19,26.36-15.8C296.82,1201.08,299.4,1195,299.8,1187.3Z" transform="translate(-15 -274.13)"/><path d="M708.78,1141.18a107.68,107.68,0,0,1,7.18-35.88c3.06-8.06,8.71-13.38,17.17-13.22,21.28.32,42.65,1,60.63,15.16a41,41,0,0,1,12,14.67c12.33,25.07,20.88,51,23.54,79.09,1.61,16.93,2,33.22-1.93,49.74-2.82,11.85-1.29,24.43-4.84,36.36-6.29,21-11.45,42.16-12.33,64.17-.08,3.14-1.77,6.13-2.74,9.19-4.43,13.46-7.66,27.41-13.38,40.31-13.87,31-32.17,58.29-64.41,73.85-32.41,15.64-65.95,25-101.74,27.65-23.22,1.77-44.82-2.82-66-11.45-1.77-.73-3.39-1.93-5.16-2.5-26-7.26-45.15-24-62.4-43.7-7.74-8.71-14.75-17.9-19-28.86-1.69-4.19-3.31-8.47-5.72-12.25-18.62-28.86-25.8-61.43-31.76-94.49-3.71-21-7.58-41.76-13.22-62.32-6-21.85-7.5-44.42-6.53-67.08.73-15.4,2.74-30.64,1.69-46.28-1-14.43,6.69-27.25,13.54-39.66a16.87,16.87,0,0,1,8.95-7c16.37-5.08,32.33-6,48.61,2,20,9.92,25.64,28.3,29,47.32,3.22,17.66,6.93,35.39,7.5,53.53.4,12.17,2.26,24.35,4,36.44,2.9,21,2.42,42.33,6.53,63.29,6,30.72,17,59.42,35,85.13,11.77,17,41.12,27.49,60.22,20.15,15.4-6,30-14.91,37.73-31,3.06-6.37,6.77-12.66,8.55-19.43,9.67-36,22.57-71.27,27.81-108.35,1.53-10.8.56-21.85.64-32.81C707.89,1195.92,708.62,1154.65,708.78,1141.18Z" transform="translate(-15 -274.13)"/><path d="M1322.54,1101.2c13.87,18.46,18.78,39.42,16.53,62-1.29,12.82-3.47,25.56-5.24,38.29-2.74,20-10.64,38.37-18.46,56.76-4.68,11-11.77,19.83-20.64,27.57-11.21,9.75-23.14,18.54-36.52,25.07a112.91,112.91,0,0,0-10.24,5.48c-4.76,2.9-5.72,7.26-2,11.29q11,12.09,22.73,23.7c17,16.69,33.94,33.46,49,52,1.61,2,3.14,4.11,4.76,6.13,11.21,14.51,10.56,21.36-.73,35.79-12.25,15.64-29.18,22.82-47.24,28.14-9.67,2.82-19.19,1.45-27.49-4.92-7.18-5.48-14.19-10.88-20.32-17.74-15.88-17.74-32.57-34.75-48.94-52.08-11.93-12.66-23.94-25.15-35.71-38-4.35-4.76-9.27-6.61-15.48-5.8-9.59,1.21-19.11,2.5-28.7,3.63-23.06,2.58-46.19,5-69.25,7.74-15.64,1.85-16,2.42-17.25,17.33-1,12.25-1.77,24.59.56,36.68,1.93,9.84,1,19.11-1.53,28.62-1.29,4.92-2.74,10-2.9,15.08-.32,9.35-5.64,13.87-13.62,16.61-8.63,2.82-17.25,5.08-26.52,3.14a127.19,127.19,0,0,0-19.19-2.26c-19.75-1-36-18-37.41-35.47-1.69-19.27-4.6-38.46-5.08-57.64-.4-16.77-1.77-33.38-3.14-50.06-1.61-21.12-.64-42.49-1.85-63.77-1.93-32.81-1.45-65.7-5.56-98.36a70,70,0,0,1-.56-11.61c.73-21.28.4-42.57-4.76-63.37-3.39-13.54-.89-26.93-.16-40.47.32-5,2.9-8.06,7.26-10.48,13.79-7.58,28.78-11.21,44.18-12.42,12.82-1,25.8-.24,38.05-.24,14.11-.81,27.65-1.21,41.12-2.58,18-1.77,35.88-2.9,54-2.26,29.67,1.13,59.34.08,89,1,28.94,1,58.21,1.69,85.46,13.38C1277.31,1059.52,1303.43,1075.72,1322.54,1101.2ZM1199.27,1240c21.28-9.92,30.15-27.25,29.75-49.66-.16-8.3-1.21-17-4.11-24.59-5.08-13.22-12.33-24.19-27.09-30.55-20.72-8.95-42.08-11.37-63.85-12.42-41.12-2-82.23-.64-123.35,1-6.45.24-8.38,1.69-8.47,7.74-.24,14.11-.08,28.3-.08,42.41,1.53,30.15,2.82,60.3,7.34,90.29,1.61,10.64,2.1,11.53,13.54,11,21.85-1,43.62-2.34,65.46-4a99.83,99.83,0,0,0,18.86-3.55c23-6,45.79-12.33,68.69-18.54C1184,1247,1191.61,1243.49,1199.27,1240Z" transform="translate(-15 -274.13)"/><path class="cls-1" d="M2039.32,1047.92l0,0c-18.31-15.39-37.62-23.73-59-25.48-16.49-1.4-28.38,1.54-36.69,20.51-7.44,17-15.88,36.25-23.47,55.57-4.23,10.7-8.27,21.63-12.18,32.2-5.74,15.51-11.67,31.54-18.19,46.85-15.31,35.83-31.67,72-47.48,107q-4.86,10.77-9.73,21.56c-4.93,11-10.1,22.18-15.1,33-3.3,7.12-6.6,14.24-9.83,21.33-1.68,3.62-3.28,7.29-4.82,10.83l-.57,1.31-.6-.6c-3.33-3.34-6.77-6.79-10.47-10.06-9-8-18.26-16.09-27.19-23.89-10.17-8.89-20.69-18.08-31-27.25-9.4-8.35-16.08-15.1-21.66-21.92s-12-10.39-19.08-10.6c-6.41-.2-12.77,2.39-19.57,8-1.86,1.54-5,4.32-9,7.84-8.94,7.87-25.59,22.52-30.8,25.67-9.19,5.5-24.08,21.6-45.76,45.54-6.29,7-12.73,14.06-17.68,19.24l-2.29-9.18c-5.38-21.59-11-43.91-15.7-66-2.1-9.57-3.7-19.6-5.25-29.29-1.86-11.65-3.78-23.69-6.63-35.56-8.8-36.73-16.19-73.18-24.59-116.6l0-.15c-.4-1.93-1.54-5.46-5.88-18.48-3-9.09-6.8-20.41-8.55-26.43-2.65-9-5.94-20.28-14.48-30.34-15.42-18.13-35.3-23-51-25.23-23.73-4.94-37.63,8.37-47.8,18.11l-1.64,1.57c-5.23,5.14-7.63,12.8-6.6,21.09.47,3.64.85,7.26,1.25,11.1,1.32,12.68,2.69,25.79,7.56,38.89,7.3,19.73,11.36,40.16,15.66,61.78,9,45.59,21.82,105.47,41.33,164.47,1.7,5.08,3.55,10.1,5.34,15,1.51,4.08,3.06,8.31,4.5,12.48,5.24,15.1,10.94,30.23,16.45,44.88,10.47,27.83,21.3,56.6,29.13,85.55a42.83,42.83,0,0,0,2.92,7.59,38.84,38.84,0,0,0,35,22.06,40.16,40.16,0,0,0,19.31-5c6.06-3.27,10.51-7.66,14.43-11.54,1.78-1.76,3.46-3.42,5.13-4.82,37.9-31.73,73.56-65,106.45-96.2a66.92,66.92,0,0,1,7.58-6.13c.84-.56,1.5-1,2-1.29.31.28.68.63,1.11,1.06,3.06,3.1,6.2,6.19,9.23,9.18,10.28,10.14,20,19.71,28,30.39,18.7,25.06,41.63,44.79,59.48,59.14,5.61,4.55,12.43,9.69,20.42,13.24l.1,0c23.28,10.09,36.69,1.19,42.6-5,11.91-12.46,29.69-45.29,31.46-48.6h0c2.18-4.09,4.47-8.27,6.68-12.31,5.18-9.44,10.53-19.2,15.2-29.26,13.82-29.74,27.37-60.13,40.28-90.35,7.87-18.39,15.49-37.19,22.86-55.37q5.47-13.5,11-27,1.05-2.56,2.09-5.13c4.77-11.74,9.28-22.83,16-32.48s16.25-33.59,27.15-61.57c3.54-9.09,7.2-18.48,8.53-21.12,4.94-9.94,8.14-20.15,11.23-30,1.43-4.56,2.78-8.87,4.26-13.08C2056.3,1073.07,2052.36,1059,2039.32,1047.92Z" transform="translate(-15 -274.13)"/><path class="cls-1" d="M2241.72,1130.86c-1.08-9.89-1.25-19.7-1.42-30.08-.19-10.89-.38-22.16-1.72-33.44-1.17-10.32-2.67-20.71-4.12-30.76-2-13.69-4-27.86-5.22-41.76a38.59,38.59,0,0,0-2.1-8.86l-.13-.39c-2.79-8.81-9.28-14-18.32-14.58-3.94-.24-8-.66-11.93-1.06-4.92-.5-10-1-15.07-1.24a307.11,307.11,0,0,0-31.73-.45c-13.31.65-23.5,8.65-27.25,21.4-4.63,15.63-9.57,33.93-9.59,53.44,0,5.44,0,11,.09,16.29.16,19.14.33,38.94-1.66,58.17a109,109,0,0,0,.33,22.85c1.68,16.87,1.4,34.28,1.12,51.11-.11,7-.23,14.26-.21,21.42,0,15.16-.46,30.66-.93,45.64-.93,29.5-1.89,60,.94,90.31a40.11,40.11,0,0,1,0,5.75c0,.94-.1,1.88-.13,2.85q-.21,7.67-.46,15.33c-.47,15.27-1,31.07-1,46.6-.1,10.7.18,23.14,4.78,35.33,6,15.81,17.32,24.75,33.63,26.59a114.49,114.49,0,0,0,12.78.67c8.26,0,16.35-.73,24.26-1.45,2.3-.21,4.6-.42,6.86-.6,9.36-.71,21.87-5.09,28.33-21.94a79,79,0,0,0,4.29-18.72c.71-5.55,1.16-11.14,1.61-16.54.51-6.23,1-12.11,1.83-18h0c1.74-12.3,1.76-24.61,1.79-36.51,0-13.9.06-27,2.6-40l.1-.52,0-.53c1.64-26.6,3.33-54.12,5.07-81.12.19-3.29.49-6.56.8-10a169.05,169.05,0,0,0,1-21.56c-1.06-25.88-.94-47.08.36-66.64l.16-2A81.44,81.44,0,0,0,2241.72,1130.86Z" transform="translate(-15 -274.13)"/><path class="cls-1" d="M2871.81,992.24c-3.18-23.44-25.73-43.32-49.27-43.42l-2.72,0c-4.49,0-8.38.09-11.89-1.05-6.72-2.29-13.23-1.81-19-1.38l-1.32.1c-18.28,1.11-29,11.48-31.07,30q-.35,3.36-.7,6.72c-1,9.7-2,19.73-3.52,29.3-1,6.12-2.3,12.39-3.57,18.45-1.2,5.71-2.44,11.62-3.43,17.48-1.93,11.16-3.76,22.51-5.54,33.48-6.26,38.78-12.74,78.87-24.59,116.91a38.05,38.05,0,0,0-1.58,9.56c-.92,15.23-4.43,29.85-8.15,45.32-1.24,5.18-2.53,10.53-3.7,15.86-.83,3.82-1.74,7.72-2.62,11.49-2.86,12.23-5.8,24.81-6.71,38-18.25-19.44-39.51-39.36-66.41-62.27-13.91-11.8-27.25-24.83-40.16-37.42-11.05-10.79-22.48-21.95-34.37-32.45-11.12-9.8-21.59-21-31.72-31.84-4.48-4.79-9.11-9.75-13.79-14.57-22.21-22.82-45.83-44.78-68.67-66q-7-6.51-14-13c-2.21-2.06-4.93-5-8.07-8.31-15.18-16.2-38.11-40.69-67.89-40.69a24.48,24.48,0,0,0-22.38,13.34,39,39,0,0,0-4.3,16c-.24,5.92-.79,12-1.32,17.91-.9,10-1.84,20.32-1.42,30.87a662.66,662.66,0,0,1-.48,66.83c-2.13,34.52-3.08,71-3.08,118.14-.18,3.25-.39,6.49-.59,9.73-.52,8.19-1.06,16.67-1.18,25.12-.73,47.24-1.37,97-2,156.63a168.23,168.23,0,0,0,3.38,36.23c3.94,19.6,13.63,28.71,32.42,30.46,1.93.17,3.85.24,5.76.24,3.44,0,6.83-.22,10.14-.43,1.5-.1,3-.19,4.47-.27,21.71-1,36.07-13,41.52-34.65a183.24,183.24,0,0,0,5.89-37.83q.61-15.77,1.28-31.52c.86-20.65,1.76-42,2.35-63.07.63-24.52,1-45-.5-66.47-.67-9.73-1.57-19.56-2.44-29.08-2.15-23.63-4.38-48.06-3.2-72a39.78,39.78,0,0,0-.17-5v-.18l.37.45a38.79,38.79,0,0,0,3.14,3.53c18.16,17.69,36.94,36,56.3,53.3,15.47,13.74,30.88,28.4,45.79,43.55,23.88,24.36,48.78,48.37,74,71.33,1.89,1.73,3.84,3.42,5.73,5.05,4.82,4.17,9.38,8.11,12.82,12.52,12.1,15.81,26.8,28.74,41,41.24,5.92,5.21,12,10.6,17.79,16a154.34,154.34,0,0,0,11.86,9.94,130.81,130.81,0,0,1,11.52,9.73c5.45,5.52,11.8,9.72,17.93,13.78,2.22,1.47,4.32,2.86,6.46,4.37,8.59,5.89,18.57,5.53,26-1,9.62-8.34,20.52-17.79,27-31.66,3.58-7.78,5.32-15.68,7-23.31.73-3.32,1.42-6.46,2.25-9.58,10.23-38.31,21-79.26,34-128.89,2.55-9.88,5-19.93,7.35-29.64,3.46-14.24,7-29,11-43.28s6.49-29.19,8.93-43.47c2.66-15.6,5.41-31.72,10-46.94a441.68,441.68,0,0,0,13-53.53,310.42,310.42,0,0,1,6.74-31.25C2873.29,1022.58,2874,1008.36,2871.81,992.24Z" transform="translate(-15 -274.13)"/></svg>